<?xml version="1.0" encoding="UTF-8" standalone="no"?>
<svg
   xmlns:dc="http://purl.org/dc/elements/1.1/"
   xmlns:cc="http://creativecommons.org/ns#"
   xmlns:rdf="http://www.w3.org/1999/02/22-rdf-syntax-ns#"
   xmlns:svg="http://www.w3.org/2000/svg"
   xmlns="http://www.w3.org/2000/svg"
   xmlns:sodipodi="http://sodipodi.sourceforge.net/DTD/sodipodi-0.dtd"
   xmlns:inkscape="http://www.inkscape.org/namespaces/inkscape"
   inkscape:version="1.0 (4035a4f, 2020-05-01)"
   height="50"
   width="51.73653"
   sodipodi:docname="seven-eleven.svg"
   xml:space="preserve"
   viewBox="0 0 51.73653 50"
   y="0px"
   x="0px"
   id="Layer_1"
   version="1.1"><metadata
   id="metadata946"><rdf:RDF><cc:Work
       rdf:about=""><dc:format>image/svg+xml</dc:format><dc:type
         rdf:resource="http://purl.org/dc/dcmitype/StillImage" /></cc:Work></rdf:RDF></metadata><defs
   id="defs944" /><sodipodi:namedview
   inkscape:current-layer="Layer_1"
   inkscape:window-maximized="1"
   inkscape:window-y="23"
   inkscape:window-x="0"
   inkscape:cy="250.5"
   inkscape:cx="-207.0675"
   inkscape:zoom="0.81"
   showgrid="false"
   id="namedview942"
   inkscape:window-height="699"
   inkscape:window-width="1280"
   inkscape:pageshadow="2"
   inkscape:pageopacity="0"
   guidetolerance="10"
   gridtolerance="10"
   objecttolerance="10"
   borderopacity="1"
   bordercolor="#666666"
   pagecolor="#ffffff" />
<style
   id="style913"
   type="text/css">
	.st0{fill:#008357;}
	.st1{fill:#FFFFFF;}
	.st2{fill:#E40520;}
	.st3{fill:#EF7D00;}
</style>
<g
   style="stroke-width:0;stroke-miterlimit:4;stroke-dasharray:none"
   transform="matrix(0.0998004,0,0,0.0998004,-14.051897,-4.9401198)"
   id="g939">
	<rect
   style="stroke-width:0;stroke-miterlimit:4;stroke-dasharray:none"
   id="rect915"
   height="501"
   width="518.40002"
   class="st0"
   y="49.5"
   x="140.8" />
	<path
   style="stroke-width:0;stroke-miterlimit:4;stroke-dasharray:none"
   id="path917"
   d="m 574.5,503.2 c -1.7,8.2 -9.1,15 -16.9,16.8 h -90 c -1.1,5.9 0.4,12.1 -0.6,18 H 338.4 c -0.4,0 -1.9,0.1 -1.9,-0.9 -0.5,-5.5 0.3,-11.7 -0.6,-17.1 l -97.3,-0.2 c -3.7,-0.5 -6.5,-3.1 -9.6,-5.1 -3.9,-3.6 -5.6,-8.7 -6.7,-13.7 L 181.1,98.6 c 0.5,-8.1 7,-15.5 14.5,-17.9 l 401.6,-1.2 c 7.6,1.1 15.1,6.4 17.7,13.8 1.1,3.4 1.1,6.8 0.8,10.4 z"
   class="st1" />
	<path
   style="stroke-width:0;stroke-miterlimit:4;stroke-dasharray:none"
   id="path919"
   d="m 552.9,225.1 c -35.1,16 -70.2,49 -77.8,88 l -1.2,0.6 H 366.7 c 0.9,-5 2.8,-10.1 4.4,-14.9 12.5,-38.2 34.4,-74.3 65.2,-103 27.5,-26.7 57.6,-48.3 90.8,-63.6 5.9,-1.7 11.2,-5.1 17.5,-6.2 2.8,-0.6 5.4,-1.5 8.5,-2 l -0.2,101.1"
   class="st2" />
	<path
   style="stroke-width:0;stroke-miterlimit:4;stroke-dasharray:none"
   id="path921"
   d="m 518.9,125.7 c -21.2,9.5 -41.4,22.5 -60.4,37.9 -21,16.6 -39.4,34.3 -56.2,54.6 H 253.4 v -0.3 -92.2 z"
   class="st3" />
	<path
   style="stroke-width:0;stroke-miterlimit:4;stroke-dasharray:none"
   id="path923"
   d="m 448.3,321.4 c -3.6,25.6 -7.3,51 -11.8,76.2 H 402 l -0.4,-0.3 C 397.9,372 394,346.5 390.5,321.4 h 23.8 l 0.3,0.5 c 3,18.8 5.3,37.8 8.8,56.3 3.4,-18.6 5.6,-38 8.9,-56.8 5.3,-0.3 10.6,-0.3 16,0"
   class="st0" />
	<polyline
   style="stroke-width:0;stroke-miterlimit:4;stroke-dasharray:none"
   id="polyline925"
   points="289.7,337.1 271.4,337.1 271.4,350.5 289.3,350.5 289.3,366.7 271.4,366.7 271.4,381.7 289.3,381.7    289.3,397.6 247.5,397.6 247.5,321.1 289.7,321.1 289.7,337.1  "
   class="st0" />
	<polyline
   style="stroke-width:0;stroke-miterlimit:4;stroke-dasharray:none"
   id="polyline927"
   points="385.8,337.1 367.6,337.1 367.6,350.5 385.5,350.5 385.5,366.7 367.6,366.7 367.6,381.7 385.4,381.7    385.4,397.6 343.7,397.6 343.7,321.1 385.8,321.1 385.8,337.1  "
   class="st0" />
	<polyline
   style="stroke-width:0;stroke-miterlimit:4;stroke-dasharray:none"
   id="polyline929"
   points="496,337.1 477.8,337.1 477.8,350.5 495.7,350.5 495.7,366.7 477.8,366.7 477.8,381.7 495.6,381.7    495.6,397.6 453.8,397.6 453.8,321.1 496,321.1 496,337.1  "
   class="st0" />
	<polyline
   style="stroke-width:0;stroke-miterlimit:4;stroke-dasharray:none"
   id="polyline931"
   points="297.9,321.1 321.9,321.1 321.9,381.7 338.9,381.7 338.9,397.6 297.9,397.6 297.9,321.1  "
   class="st0" />
	<path
   style="stroke-width:0;stroke-miterlimit:4;stroke-dasharray:none"
   id="path933"
   d="m 526.9,329.9 c 4.9,-7.1 10.6,-10.4 19.3,-10.4 13.5,0 16,9.8 16,29.1 v 49.3 h -23.1 v -48.1 c 0,-6.7 -0.4,-11.4 -5.6,-11.4 -6,0 -6.3,5.3 -6.3,14.8 v 44.7 H 504 v -76.6 h 22.9 v 8.6"
   class="st0" />
	<path
   style="stroke-width:0;stroke-miterlimit:4;stroke-dasharray:none"
   id="path935"
   d="m 490.1,422.5 c 2.5,0 4.7,-0.2 4.7,-3.2 0,-2.4 -2.2,-2.9 -4.3,-2.9 h -4 v 6.1 h 3.6 m -3.5,11 h -3 v -19.6 h 7.5 c 4.6,0 6.9,1.7 6.9,5.6 0,3.5 -2.2,5 -5.1,5.4 l 5.6,8.6 h -3.3 L 490,425 h -3.4 z m 3.6,4.4 c 7.7,0 13.8,-6 13.8,-14.2 0,-8.1 -6.1,-14.2 -13.8,-14.2 -7.8,0 -13.9,6.1 -13.9,14.2 0,8.1 6.1,14.2 13.9,14.2 z m -17.3,-14.3 c 0,-9.8 7.9,-17 17.3,-17 9.3,0 17.2,7.2 17.2,17 0,9.8 -7.9,17.1 -17.2,17.1 -9.4,0 -17.3,-7.2 -17.3,-17.1 z"
   class="st0" />
	<path
   style="stroke-width:0;stroke-miterlimit:4;stroke-dasharray:none"
   id="path937"
   d="m 344,530 -0.3,-1.9 c 0,-11.5 0.6,-23.3 1,-34.6 1.4,-29 3.4,-59.1 7.6,-87.7 l 111.3,0.1 c -3.9,41.2 -3.7,82.6 -3.7,124.2 z"
   class="st2" />
</g>
</svg>
